<?xml version="1.0" encoding="UTF-8"?>
<svg version="1.1" xmlns="http://www.w3.org/2000/svg" width="820" height="394">
<path d="M0 0 C130.35 0 260.7 0 395 0 C395 130.02 395 260.04 395 394 C264.65 394 134.3 394 0 394 C0 263.98 0 133.96 0 0 Z M14 14 C14 134.78 14 255.56 14 380 C135.11 380 256.22 380 381 380 C381 259.22 381 138.44 381 14 C259.89 14 138.78 14 14 14 Z " fill="#000000" transform="translate(44,0)"/>
<path d="M0 0 C12.601875 -0.061875 25.20375 -0.12375 38.1875 -0.1875 C44.11819458 -0.22846802 44.11819458 -0.22846802 50.16870117 -0.27026367 C55.06115723 -0.28381348 55.06115723 -0.28381348 57.3639679 -0.28633118 C58.94508917 -0.29088621 60.52620118 -0.30132769 62.10725403 -0.31672668 C77.07676856 -0.45501812 91.43312971 0.26503148 103.06640625 10.88671875 C109.63013113 17.86153287 111.98520404 25.48619504 112 35 C111.2385447 43.34831902 107.66233257 49.8852149 101.375 55.375 C99.30323171 57.05303857 97.22578618 58.51614255 95 60 C95.53109375 60.3403125 96.0621875 60.680625 96.609375 61.03125 C102.79883796 65.2780348 105.91537744 69.18099245 107.57421875 76.55126953 C108.93763784 84.45773683 109.41550604 92.23760077 109.625 100.25 C109.74875 104.4575 109.8725 108.665 110 113 C97.79 113 85.58 113 73 113 C71.32505467 108.81263668 70.74547517 106.99337622 70.65625 102.76171875 C70.62660156 101.77623047 70.59695312 100.79074219 70.56640625 99.77539062 C70.54449219 98.75638672 70.52257812 97.73738281 70.5 96.6875 C70.81230763 85.04306581 70.81230763 85.04306581 66.0625 75.0625 C62.45137026 73.20222104 59.46193934 72.83192368 55.45703125 72.68359375 C54.48999268 72.64548584 53.5229541 72.60737793 52.52661133 72.56811523 C51.30095459 72.52501221 50.07529785 72.48190918 48.8125 72.4375 C44.914375 72.293125 41.01625 72.14875 37 72 C37 85.53 37 99.06 37 113 C24.79 113 12.58 113 0 113 C0 75.71 0 38.42 0 0 Z M37 25 C37 32.59 37 40.18 37 48 C42.135625 48.061875 42.135625 48.061875 47.375 48.125 C48.43251465 48.14320801 49.4900293 48.16141602 50.57958984 48.18017578 C57.65306751 48.22086567 65.37106593 48.21276468 71.5625 44.4375 C73.7344484 40.75463097 74.17467415 37.24534132 74 33 C72.734043 29.36037361 71.55392119 28.32606708 68.24609375 26.37890625 C62.4869813 24.01672946 56.16963122 24.68760324 50.0625 24.8125 C48.80630859 24.82603516 47.55011719 24.83957031 46.25585938 24.85351562 C43.17038729 24.88871112 40.08513727 24.94251297 37 25 Z " fill="#000000" transform="translate(127,211)"/>
<path d="M0 0 C16.17 0 32.34 0 49 0 C57.36766087 20.03834578 65.49665999 40.16210972 73.53710938 60.33374023 C77.38302332 69.97864451 81.2352546 79.61985032 85.17578125 89.2265625 C85.48752792 89.98762802 85.7992746 90.74869354 86.12046814 91.53282166 C87.53805871 94.99138859 88.96133245 98.4474292 90.39428711 101.8996582 C90.87776611 103.07616943 91.36124512 104.25268066 91.859375 105.46484375 C92.27670898 106.471521 92.69404297 107.47819824 93.12402344 108.51538086 C94 111 94 111 94 114 C80.8 114 67.6 114 54 114 C51.23837702 107.37210485 48.52114347 100.72304925 46 94 C24.22 93.505 24.22 93.505 2 93 C1.01 96.63 0.02 100.26 -1 104 C-2.98 108.95 -2.98 108.95 -5 114 C-17.21 114 -29.42 114 -42 114 C-41.19938209 109.19629253 -40.23614526 105.54777144 -38.55078125 101.05859375 C-38.30192673 100.39134277 -38.0530722 99.7240918 -37.79667664 99.03662109 C-36.97391743 96.83488756 -36.14332137 94.63620264 -35.3125 92.4375 C-34.72680474 90.87588569 -34.14152623 89.31411501 -33.55664062 87.75219727 C-32.01900225 83.6510218 -30.47415381 79.55260376 -28.92681885 75.45507812 C-28.02474407 73.06554529 -27.12416483 70.67545475 -26.22412109 68.28515625 C-20.04257947 51.87177738 -13.81214706 35.47694251 -7.55737305 19.09133911 C-6.9812559 17.58206338 -6.40540594 16.07268563 -5.82983398 14.5632019 C-5.03739452 12.48572311 -4.24354879 10.40878779 -3.44921875 8.33203125 C-2.99893311 7.15358643 -2.54864746 5.9751416 -2.0847168 4.76098633 C-1 2 -1 2 0 0 Z M23 24 C22.77860352 24.75506836 22.55720703 25.51013672 22.32910156 26.28808594 C21.30498342 29.77605541 20.27750899 33.26302799 19.25 36.75 C18.90195313 37.93722656 18.55390625 39.12445313 18.1953125 40.34765625 C16.1879054 47.15053587 14.07062908 53.88839771 11.72558594 60.58300781 C10.8562373 63.05829413 10.8562373 63.05829413 11 66 C19.58 66 28.16 66 37 66 C36.15904409 60.8710026 36.15904409 60.8710026 34.78491211 56.01416016 C34.54473862 55.29386627 34.30456512 54.57357239 34.05711365 53.83145142 C33.79978958 53.07496307 33.54246552 52.31847473 33.27734375 51.5390625 C33.01240616 50.74849457 32.74746857 49.95792664 32.47450256 49.1434021 C31.63307496 46.63581913 30.78539038 44.13040416 29.9375 41.625 C29.36351682 39.91810841 28.78994471 38.21107852 28.21679688 36.50390625 C26.81595071 32.33432184 25.40949176 28.16666938 24 24 C23.67 24 23.34 24 23 24 Z " fill="#000000" transform="translate(155,69)"/>
<path d="M0 0 C6.88875 0.268125 13.7775 0.53625 20.875 0.8125 C20.875 20.9425 20.875 41.0725 20.875 61.8125 C25.825 61.8125 30.775 61.8125 35.875 61.8125 C35.56797653 65.95880722 35.25465692 70.10446659 34.9375 74.25 C34.85048828 75.43400391 34.76347656 76.61800781 34.67382812 77.83789062 C34.58681641 78.96259766 34.49980469 80.08730469 34.41015625 81.24609375 C34.29232788 82.80928345 34.29232788 82.80928345 34.17211914 84.40405273 C33.875 86.8125 33.875 86.8125 32.875 87.8125 C28.915 87.8125 24.955 87.8125 20.875 87.8125 C20.875 96.7225 20.875 105.6325 20.875 114.8125 C9.655 114.8125 -1.565 114.8125 -13.125 114.8125 C-13.125 105.9025 -13.125 96.9925 -13.125 87.8125 C-31.275 87.8125 -49.425 87.8125 -68.125 87.8125 C-68.125 57.97375954 -68.125 57.97375954 -60.1796875 49.765625 C-59.66245117 49.27513672 -59.14521484 48.78464844 -58.61230469 48.27929688 C-56.25744383 45.95690619 -54.35005716 43.3342096 -52.375 40.6875 C-51.55833102 39.6215987 -50.74057514 38.5565295 -49.921875 37.4921875 C-45.85437376 32.15771055 -41.84094596 26.78215678 -37.82910156 21.40576172 C-36.60812357 19.77193267 -35.36719958 18.15285923 -34.10888672 16.54760742 C-32.00635126 13.76873855 -32.00635126 13.76873855 -30.20751953 10.3215332 C-22.98778568 -2.14155743 -13.26085981 -0.72866773 0 0 Z M-14.125 30.8125 C-15.45625912 32.79390892 -16.73624617 34.78839076 -18 36.8125 C-22.06066867 43.23958439 -26.312845 49.51429071 -30.66943359 55.74414062 C-33.03867134 58.54674801 -33.03867134 58.54674801 -34.125 61.8125 C-27.195 61.8125 -20.265 61.8125 -13.125 61.8125 C-13.125 51.5825 -13.125 41.3525 -13.125 30.8125 C-13.455 30.8125 -13.785 30.8125 -14.125 30.8125 Z " fill="#000000" transform="translate(335.125,68.1875)"/>
<path d="M0 0 C3.94397183 2.44758252 7.64225904 5.16303697 11.34375 7.9609375 C13.04498384 9.23125804 14.74682184 10.50076981 16.44921875 11.76953125 C17.31337402 12.41519043 18.1775293 13.06084961 19.06787109 13.72607422 C23.06913268 16.69777142 27.11070871 19.61245824 31.15625 22.5234375 C32.27012085 23.32696655 32.27012085 23.32696655 33.40649414 24.14672852 C36.67565885 26.50476051 39.94803377 28.85813082 43.2265625 31.203125 C44.23460937 31.92757812 45.24265625 32.65203125 46.28125 33.3984375 C47.13976562 34.01203125 47.99828125 34.625625 48.8828125 35.2578125 C49.46804688 35.71671875 50.05328125 36.175625 50.65625 36.6484375 C50.65625 36.9784375 50.65625 37.3084375 50.65625 37.6484375 C34.48625 37.9784375 18.31625 38.3084375 1.65625 38.6484375 C14.30943241 47.79105209 14.30943241 47.79105209 26.98095703 56.90722656 C43.9523643 69.10529526 43.9523643 69.10529526 50.65625 74.6484375 C50.65625 74.9784375 50.65625 75.3084375 50.65625 75.6484375 C34.81625 75.9784375 18.97625 76.3084375 2.65625 76.6484375 C15.15525505 86.05137681 15.15525505 86.05137681 27.78125 95.2734375 C28.51843262 95.80485352 29.25561523 96.33626953 30.01513672 96.88378906 C33.63461234 99.49018586 37.26363295 102.08229252 40.90625 104.65625 C41.56222168 105.1207959 42.21819336 105.5853418 42.89404297 106.06396484 C44.12525718 106.93457505 45.35856629 107.80223238 46.59423828 108.66650391 C47.96585564 109.63603182 49.31406276 110.63856028 50.65625 111.6484375 C50.65625 111.9784375 50.65625 112.3084375 50.65625 112.6484375 C16.33625 112.6484375 -17.98375 112.6484375 -53.34375 112.6484375 C-50.70272907 110.00741657 -48.59699594 107.97287291 -45.6484375 105.87109375 C-44.94122559 105.36392822 -44.23401367 104.8567627 -43.50537109 104.33422852 C-42.75078613 103.79854248 -41.99620117 103.26285645 -41.21875 102.7109375 C-39.60411062 101.55476576 -37.989529 100.39851336 -36.375 99.2421875 C-35.54613281 98.65050781 -34.71726562 98.05882812 -33.86328125 97.44921875 C-29.80585878 94.54926253 -25.76227596 91.63022202 -21.71875 88.7109375 C-20.99800293 88.19217041 -20.27725586 87.67340332 -19.53466797 87.13891602 C-18.84002441 86.63803467 -18.14538086 86.13715332 -17.4296875 85.62109375 C-16.8320459 85.19062744 -16.2344043 84.76016113 -15.61865234 84.31665039 C-12.17234167 81.78942987 -8.76265282 79.21261462 -5.34375 76.6484375 C-21.18375 76.3184375 -37.02375 75.9884375 -53.34375 75.6484375 C-47.72016723 70.02485473 -47.72016723 70.02485473 -44.3671875 67.58984375 C-43.62299561 67.04569824 -42.87880371 66.50155273 -42.11206055 65.94091797 C-41.32226807 65.37002441 -40.53247559 64.79913086 -39.71875 64.2109375 C-38.02461025 62.97543775 -36.33060387 61.73975509 -34.63671875 60.50390625 C-33.76708496 59.87145996 -32.89745117 59.23901367 -32.00146484 58.58740234 C-29.35388014 56.65582805 -26.71626419 54.71145435 -24.08203125 52.76171875 C-23.23527832 52.13515381 -22.38852539 51.50858887 -21.51611328 50.86303711 C-19.89815825 49.66522898 -18.28062338 48.46685305 -16.66357422 47.26782227 C-15.92252441 46.72053467 -15.18147461 46.17324707 -14.41796875 45.609375 C-13.77432373 45.13290527 -13.13067871 44.65643555 -12.4675293 44.16552734 C-9.8039474 42.26283762 -7.06735155 40.46417187 -4.34375 38.6484375 C-28.59875 38.1534375 -28.59875 38.1534375 -53.34375 37.6484375 C-49.5882534 33.8929409 -46.43108797 31.13112015 -42.15625 28.1484375 C-40.91231648 27.27406873 -39.66885043 26.39903465 -38.42578125 25.5234375 C-37.76658691 25.06066406 -37.10739258 24.59789062 -36.42822266 24.12109375 C-33.48258473 22.04003402 -30.56083683 19.92665511 -27.64013672 17.81079102 C-26.11137398 16.70412022 -24.58044974 15.60042914 -23.04736328 14.49975586 C-19.41369335 11.88919964 -15.80902571 9.25437391 -12.26171875 6.52734375 C-11.31329102 5.81191406 -11.31329102 5.81191406 -10.34570312 5.08203125 C-9.16770905 4.19187857 -8.0002177 3.28758846 -6.84570312 2.3671875 C-4.4418295 0.57095147 -3.04043963 -0.45606594 0 0 Z " fill="#000000" transform="translate(320.34375,211.3515625)"/>
<path d="M0 0 C5.445 -0.0825 10.89 -0.165 16.5 -0.25 C18.20220703 -0.28641602 19.90441406 -0.32283203 21.65820312 -0.36035156 C29.26594846 -0.45535486 35.54269976 -0.51844591 42 4 C45.30195348 7.61151162 45.45359988 11.13807358 45.296875 15.84765625 C44.74436521 19.8533522 42.7792459 22.2207541 40 25 C40.64453125 25.65355469 41.2890625 26.30710938 41.953125 26.98046875 C44.59036961 30.87090784 44.65837835 33.73001518 44.75 38.3125 C44.8325 40.849375 44.915 43.38625 45 46 C39.72 46 34.44 46 29 46 C27.89485234 42.68455701 27.67892369 39.79589889 27.4375 36.3125 C27.35371094 35.13300781 27.26992188 33.95351562 27.18359375 32.73828125 C27.12300781 31.83464844 27.06242188 30.93101562 27 30 C23.04 29.67 19.08 29.34 15 29 C15 34.61 15 40.22 15 46 C10.05 46 5.1 46 0 46 C0 30.82 0 15.64 0 0 Z M15 10 C15 12.97 15 15.94 15 19 C16.93681161 19.08107583 18.8745934 19.13922475 20.8125 19.1875 C21.89144531 19.22230469 22.97039063 19.25710937 24.08203125 19.29296875 C27.01948844 19.26536952 27.01948844 19.26536952 28.88671875 17.48828125 C29.25410156 16.99714844 29.62148438 16.50601563 30 16 C29.21869929 13.50447516 29.21869929 13.50447516 28 11 C24.98509443 9.99503148 22.95818308 9.89664697 19.8125 9.9375 C18.91144531 9.94652344 18.01039063 9.95554688 17.08203125 9.96484375 C16.05142578 9.98224609 16.05142578 9.98224609 15 10 Z " fill="#000000" transform="translate(501,208)"/>
<path d="M0 0 C1.28197266 -0.00386719 1.28197266 -0.00386719 2.58984375 -0.0078125 C5.0625 0.125 5.0625 0.125 6.73266602 0.62939453 C10.08286228 1.34205286 13.40562497 1.22936141 16.8125 1.1875 C17.50988281 1.18298828 18.20726562 1.17847656 18.92578125 1.17382812 C20.63805803 1.1621002 22.35029033 1.14416653 24.0625 1.125 C24.13690448 6.28447346 24.19122191 11.44363151 24.22729492 16.60351562 C24.24233995 18.35715173 24.26278104 20.11075047 24.28881836 21.86425781 C24.32539121 24.39137009 24.3422692 26.91798296 24.35546875 29.4453125 C24.37095261 30.22367462 24.38643646 31.00203674 24.40238953 31.8039856 C24.40387532 36.65831607 23.70679038 39.90032829 21.0625 44.125 C15.66057469 49.38092733 10.05725799 50.41470693 2.6875 50.4375 C-3.29541367 50.33768692 -7.71165419 50.08302593 -12.9375 47.125 C-16.06943451 43.44497695 -16.9375 41.99885899 -16.9375 37.125 C-11.9875 37.125 -7.0375 37.125 -1.9375 37.125 C-1.6075 37.785 -1.2775 38.445 -0.9375 39.125 C1.94256394 40.04957659 1.94256394 40.04957659 5.0625 40.125 C7.02290481 38.99859395 7.02290481 38.99859395 8.0625 37.125 C8.0625 36.135 8.0625 35.145 8.0625 34.125 C7.49015625 34.44726562 6.9178125 34.76953125 6.328125 35.1015625 C1.97853045 37.06637935 -2.64084737 36.83538816 -7.16015625 35.4375 C-11.91773607 33.30325858 -14.69648433 30.96559384 -16.9375 26.125 C-18.5721147 19.46167479 -18.35707068 13.17856431 -14.9375 7.125 C-10.54878367 2.19804488 -6.66672945 -0.02005031 0 0 Z M0.0625 11.125 C-2.48190716 14.94161075 -2.51372479 17.6546109 -1.9375 22.125 C-1.05879086 24.337981 -1.05879086 24.337981 1.0625 25.125 C4.67712786 25.04921045 4.67712786 25.04921045 8.0625 24.125 C9.23923198 21.77153604 9.22873866 20.2443967 9.25 17.625 C9.27126953 16.43390625 9.27126953 16.43390625 9.29296875 15.21875 C9.25916303 12.90466683 9.25916303 12.90466683 7.0625 11.125 C3.5625 10.70833333 3.5625 10.70833333 0.0625 11.125 Z " fill="#000000" transform="translate(569.9375,79.875)"/>
<path d="M0 0 C6.6 0 13.2 0 20 0 C23.86827479 8.34119516 27.46028509 16.77012052 30.93139648 25.28198242 C31.82207287 27.46091893 32.72254583 29.6356554 33.62304688 31.81054688 C34.19331363 33.20548187 34.762997 34.60065553 35.33203125 35.99609375 C35.60070511 36.64090195 35.86937897 37.28571014 36.14619446 37.95005798 C37.48171082 41.25892007 38 43.35760047 38 47 C32.72 47 27.44 47 22 47 C21.01 44.03 20.02 41.06 19 38 C13.06 38 7.12 38 1 38 C0.34 40.97 -0.32 43.94 -1 47 C-6.28 47 -11.56 47 -17 47 C-15.87495212 40.24971273 -15.87495212 40.24971273 -14.52539062 36.77050781 C-14.22838257 35.99660706 -13.93137451 35.2227063 -13.62536621 34.425354 C-13.30555786 33.60951843 -12.98574951 32.79368286 -12.65625 31.953125 C-12.16251892 30.67450592 -12.16251892 30.67450592 -11.65881348 29.37005615 C-10.61120815 26.66126938 -9.55560437 23.95567814 -8.5 21.25 C-7.78986243 19.4155589 -7.08022166 17.58092539 -6.37109375 15.74609375 C-1.20781433 2.41562866 -1.20781433 2.41562866 0 0 Z M9 13 C8.32968281 14.9570868 7.66385317 16.91571113 7 18.875 C6.62875 19.96554688 6.2575 21.05609375 5.875 22.1796875 C4.901228 24.82620854 4.901228 24.82620854 5 27 C8.3 27 11.6 27 15 27 C14.3844197 24.85144546 13.75726569 22.70620375 13.125 20.5625 C12.77695312 19.36753906 12.42890625 18.17257813 12.0703125 16.94140625 C11.3391709 13.88308969 11.3391709 13.88308969 9 13 Z " fill="#000000" transform="translate(512,69)"/>
<path d="M0 0 C13.53 0 27.06 0 41 0 C41 3.63 41 7.26 41 11 C32.42 11 23.84 11 15 11 C15 12.98 15 14.96 15 17 C22.92 17 30.84 17 39 17 C39.495 22.445 39.495 22.445 40 28 C31.75 28 23.5 28 15 28 C15 30.31 15 32.62 15 35 C23.91 35 32.82 35 42 35 C41.67 38.63 41.34 42.26 41 46 C27.47 46 13.94 46 0 46 C0 30.82 0 15.64 0 0 Z " fill="#000000" transform="translate(501,277)"/>
<path d="M0 0 C13.2 0 26.4 0 40 0 C40 3.63 40 7.26 40 11 C31.75 11 23.5 11 15 11 C15 13.31 15 15.62 15 18 C22.92 18 30.84 18 39 18 C39 21.96 39 25.92 39 30 C31.08 30 23.16 30 15 30 C15 35.28 15 40.56 15 46 C10.05 46 5.1 46 0 46 C0 30.82 0 15.64 0 0 Z " fill="#000000" transform="translate(501,139)"/>
<path d="M0 0 C5.28 0 10.56 0 16 0 C18.30442525 5.92566493 20.23536928 11.89262558 22 18 C22.33 18 22.66 18 23 18 C24.65 12.06 26.3 6.12 28 0 C33.28 0 38.56 0 44 0 C40.48248359 10.33270445 36.86970591 20.62938977 32.9375 30.8125 C32.48213867 32.03694824 32.48213867 32.03694824 32.01757812 33.28613281 C29.56370413 39.52413882 26.47770877 44.96994991 20.55078125 48.4296875 C17.36458727 49.14206778 14.45008061 49.19091072 11.1875 49.125 C10.02605469 49.10695312 8.86460937 49.08890625 7.66796875 49.0703125 C6.34732422 49.03550781 6.34732422 49.03550781 5 49 C5 45.37 5 41.74 5 38 C7.64 37.67 10.28 37.34 13 37 C12.41253016 32.3919927 11.15662088 28.63484999 9.27734375 24.39453125 C9.01240616 23.7886467 8.74746857 23.18276215 8.47450256 22.55851746 C7.63522878 20.64029007 6.78731016 18.72608047 5.9375 16.8125 C5.08460555 14.88801404 4.23382589 12.96273448 3.38978577 11.03434753 C2.62721147 9.29239075 1.85665486 7.55393485 1.08569336 5.81567383 C0 3 0 3 0 0 Z " fill="#000000" transform="translate(732,81)"/>
<path d="M0 0 C3.11895075 3.00641129 4.39102836 5.95982003 4.75048828 10.29052734 C4.81090872 13.64411552 4.77692723 16.98266684 4.703125 20.3359375 C4.68282227 22.08390625 4.68282227 22.08390625 4.66210938 23.8671875 C4.62688321 26.73224868 4.57762215 29.59635127 4.515625 32.4609375 C-1.15104167 32.4609375 -6.81770833 32.4609375 -12.484375 32.4609375 C-13.474375 32.9559375 -13.474375 32.9559375 -14.484375 33.4609375 C-16.58491216 33.60995241 -18.69125325 33.68232203 -20.796875 33.7109375 C-21.92738281 33.73671875 -23.05789063 33.7625 -24.22265625 33.7890625 C-27.82515332 33.42665561 -29.61857127 32.63184723 -32.484375 30.4609375 C-35.31204516 26.21943226 -35.25593625 22.44029155 -34.484375 17.4609375 C-31.43000849 13.14889066 -28.47987443 11.81788807 -23.484375 10.4609375 C-20.0546875 10.265625 -20.0546875 10.265625 -16.609375 10.3359375 C-15.45695313 10.35398437 -14.30453125 10.37203125 -13.1171875 10.390625 C-12.24835937 10.41382813 -11.37953125 10.43703125 -10.484375 10.4609375 C-10.814375 9.4709375 -11.144375 8.4809375 -11.484375 7.4609375 C-13.464375 7.4609375 -15.444375 7.4609375 -17.484375 7.4609375 C-17.814375 8.1209375 -18.144375 8.7809375 -18.484375 9.4609375 C-23.104375 9.4609375 -27.724375 9.4609375 -32.484375 9.4609375 C-32.814375 8.8009375 -33.144375 8.1409375 -33.484375 7.4609375 C-31.56483646 3.40857836 -29.16881241 0.97713866 -25.484375 -1.5390625 C-17.83726624 -4.18142731 -7.1407388 -3.76336234 0 0 Z M-20.484375 20.4609375 C-19.824375 21.7809375 -19.164375 23.1009375 -18.484375 24.4609375 C-14.83321194 24.77869652 -14.83321194 24.77869652 -11.671875 23.1484375 C-10.1966283 21.39594208 -10.1966283 21.39594208 -10.484375 18.4609375 C-15.80607994 18.16531383 -15.80607994 18.16531383 -20.484375 20.4609375 Z " fill="#000000" transform="translate(651.484375,290.5390625)"/>
<path d="M0 0 C0.72848145 -0.01023193 1.45696289 -0.02046387 2.20751953 -0.03100586 C6.96144673 0.0464038 10.23793881 0.88537628 14.375 3.4375 C18.00990569 7.44843041 18.49950719 10.90958351 18.47265625 16.19921875 C18.46943359 17.31748047 18.46621094 18.43574219 18.46289062 19.58789062 C18.45032227 21.33875977 18.45032227 21.33875977 18.4375 23.125 C18.43298828 24.30384766 18.42847656 25.48269531 18.42382812 26.69726562 C18.41203285 29.61069867 18.39409727 32.52410567 18.375 35.4375 C13.755 35.4375 9.135 35.4375 4.375 35.4375 C4.375 34.7775 4.375 34.1175 4.375 33.4375 C3.6325 33.9325 2.89 34.4275 2.125 34.9375 C-2.81382432 37.39515305 -8.26645667 37.07612092 -13.625 36.4375 C-17.12702602 34.98838578 -18.82029119 34.04343403 -20.52734375 30.63671875 C-21.8013642 26.75434873 -21.67942197 24.63277884 -20.5625 20.625 C-17.9076337 16.25731673 -15.36264379 15.0167146 -10.625 13.4375 C-8.23009014 13.36779948 -5.83332309 13.35301997 -3.4375 13.375 C-2.16519531 13.38402344 -0.89289062 13.39304688 0.41796875 13.40234375 C1.88169922 13.41974609 1.88169922 13.41974609 3.375 13.4375 C3.045 12.4475 2.715 11.4575 2.375 10.4375 C0.065 10.1075 -2.245 9.7775 -4.625 9.4375 C-4.625 10.0975 -4.625 10.7575 -4.625 11.4375 C-9.575 11.4375 -14.525 11.4375 -19.625 11.4375 C-18.22327288 6.88188686 -17.31912828 4.97892006 -13.5 2 C-9.11726712 0.10299622 -4.70539119 0.05185698 0 0 Z M-4.625 21.4375 C-5.285 22.7575 -5.945 24.0775 -6.625 25.4375 C-4.40723378 26.74264736 -4.40723378 26.74264736 -1.625 27.4375 C1.23188329 26.3904689 1.23188329 26.3904689 3.375 24.4375 C3.375 23.4475 3.375 22.4575 3.375 21.4375 C0.735 21.4375 -1.905 21.4375 -4.625 21.4375 Z " fill="#000000" transform="translate(615.625,218.5625)"/>
<path d="M0 0 C4.37097846 2.68749256 6.6721816 6.25852908 7.99609375 11.09765625 C8.68359375 15.03515625 8.68359375 15.03515625 8.68359375 20.03515625 C0.10359375 20.03515625 -8.47640625 20.03515625 -17.31640625 20.03515625 C-15.60909309 23.30907813 -15.60909309 23.30907813 -12.31640625 23.84765625 C-11.32640625 23.90953125 -10.33640625 23.97140625 -9.31640625 24.03515625 C-8.65640625 23.37515625 -7.99640625 22.71515625 -7.31640625 22.03515625 C-4.73576496 21.8901764 -2.26696741 21.8483808 0.30859375 21.91015625 C1.36820313 21.92369141 1.36820313 21.92369141 2.44921875 21.9375 C4.19415473 21.96108022 5.9389167 21.99695164 7.68359375 22.03515625 C7.1386102 25.90843217 6.86597758 26.85691751 3.93359375 29.72265625 C-3.35675082 34.91001681 -10.67656669 34.77807239 -19.31640625 34.03515625 C-24.75666288 32.53299584 -28.24906683 29.82020574 -31.31640625 25.03515625 C-33.2457998 19.2469756 -33.58912542 11.72872096 -30.94140625 6.09765625 C-24.24051182 -3.46166168 -9.97698663 -4.45956783 0 0 Z M-16.12890625 8.47265625 C-17.41725346 9.84075998 -17.41725346 9.84075998 -17.31640625 11.03515625 C-14.01640625 11.03515625 -10.71640625 11.03515625 -7.31640625 11.03515625 C-7.97640625 9.71515625 -8.63640625 8.39515625 -9.31640625 7.03515625 C-13.01120081 6.69638078 -13.01120081 6.69638078 -16.12890625 8.47265625 Z " fill="#000000" transform="translate(722.31640625,289.96484375)"/>
<path d="M0 0 C3.37234391 2.92269806 4.98488476 4.96976952 7 9 C7 12.3 7 15.6 7 19 C-1.25 19 -9.5 19 -18 19 C-16.68 20.32 -15.36 21.64 -14 23 C-10.6678502 22.80801478 -10.6678502 22.80801478 -8 21 C-5.46950598 20.92686433 -2.96695163 20.90752473 -0.4375 20.9375 C0.62887695 20.94426758 0.62887695 20.94426758 1.71679688 20.95117188 C3.47790013 20.96299136 5.23896036 20.98092737 7 21 C5.52182696 25.94074275 4.3891993 28.14191673 0 31 C-6.81345811 34.39451856 -16.37365313 34.1245996 -23.68359375 32.34765625 C-27.80849451 30.5308285 -30.36870257 28.05029461 -32.3125 23.98046875 C-34.44952383 17.82438306 -34.53489232 12.20479635 -32.21875 6.08203125 C-29.76306873 1.88690908 -25.69677234 -1.08621764 -21.109375 -2.640625 C-13.72484797 -3.8987296 -6.5103373 -3.85305677 0 0 Z M-18 8 C-18 8.99 -18 9.98 -18 11 C-14.7 11 -11.4 11 -8 11 C-8.57125354 7.25724788 -8.57125354 7.25724788 -10 6 C-14.49885769 5.53277305 -14.49885769 5.53277305 -18 8 Z " fill="#000000" transform="translate(633,83)"/>
<path d="M0 0 C2.94190877 2.0808623 3.99532843 3.58152916 5.5625 6.8125 C5.90307617 9.95043945 5.90307617 9.95043945 5.85546875 13.42578125 C5.8409668 15.2965332 5.8409668 15.2965332 5.82617188 17.20507812 C5.80103516 18.49865234 5.77589844 19.79222656 5.75 21.125 C5.72969727 23.09436523 5.72969727 23.09436523 5.70898438 25.10351562 C5.67367706 28.3400195 5.61987168 31.57631206 5.5625 34.8125 C0.6125 34.8125 -4.3375 34.8125 -9.4375 34.8125 C-9.9325 22.4375 -9.9325 22.4375 -10.4375 9.8125 C-12.4175 10.1425 -14.3975 10.4725 -16.4375 10.8125 C-17.64020964 13.21791929 -17.64066663 14.91616591 -17.75390625 17.6015625 C-17.81674805 19.01308594 -17.81674805 19.01308594 -17.88085938 20.453125 C-17.93983398 21.93039063 -17.93983398 21.93039063 -18 23.4375 C-18.04318359 24.43007812 -18.08636719 25.42265625 -18.13085938 26.4453125 C-18.23710947 28.90087033 -18.33782455 31.35666651 -18.4375 33.8125 C-23.3875 33.8125 -28.3375 33.8125 -33.4375 33.8125 C-33.4375 22.5925 -33.4375 11.3725 -33.4375 -0.1875 C-28.4875 -0.1875 -23.5375 -0.1875 -18.4375 -0.1875 C-18.4375 0.4725 -18.4375 1.1325 -18.4375 1.8125 C-17.81875 1.3175 -17.2 0.8225 -16.5625 0.3125 C-11.09377206 -2.31248941 -5.66612556 -1.95738883 0 0 Z " fill="#000000" transform="translate(679.4375,81.1875)"/>
<path d="M0 0 C1.77697266 -0.02513672 1.77697266 -0.02513672 3.58984375 -0.05078125 C9.93281803 0.61276949 13.97613244 3.54507118 18.0625 8.3125 C20.70753215 12.97279473 20.0625 15.35827223 20.0625 21.3125 C7.6875 21.8075 7.6875 21.8075 -4.9375 22.3125 C-4.2775 23.3025 -3.6175 24.2925 -2.9375 25.3125 C0.63019552 26.04856499 0.63019552 26.04856499 4.0625 26.3125 C4.0625 25.6525 4.0625 24.9925 4.0625 24.3125 C9.3425 24.3125 14.6225 24.3125 20.0625 24.3125 C17.7902355 29.99316124 15.28576216 32.72302193 9.7890625 35.43359375 C3.17761902 37.56478971 -5.2358575 37.58880357 -11.5625 34.5625 C-15.52198577 32.14281425 -18.2360319 29.85572982 -20.1875 25.5625 C-21.78432265 18.6429352 -21.46249216 13.53998616 -17.9375 7.3125 C-12.77491919 1.70486912 -7.46708976 0.02432277 0 0 Z M-2.9375 9.3125 C-3.5975 10.6325 -4.2575 11.9525 -4.9375 13.3125 C-1.6375 13.3125 1.6625 13.3125 5.0625 13.3125 C4.4025 11.9925 3.7425 10.6725 3.0625 9.3125 C1.0825 9.3125 -0.8975 9.3125 -2.9375 9.3125 Z " fill="#000000" transform="translate(570.9375,218.6875)"/>
<path d="M0 0 C3.90549875 3.49439362 5.04156414 7.33119181 5.8671875 12.375 C6.13057512 17.58077889 4.81087564 21.77452915 1.515625 25.82421875 C-3.74382912 30.8062246 -9.3227724 31.9776914 -16.375 32.375 C-22.32840263 32.19989992 -28.38330762 30.58076526 -32.70703125 26.31640625 C-36.5891317 21.1141679 -37.4403147 16.49464189 -37 10 C-34.91990503 3.29747175 -31.82473981 0.39046238 -26 -3.25 C-17.28649969 -6.51756262 -7.64176437 -5.2006452 0 0 Z M-19.13671875 6.1875 C-21.19589265 7.85414699 -21.19589265 7.85414699 -21.49609375 10.33984375 C-21.47675781 11.19707031 -21.45742188 12.05429688 -21.4375 12.9375 C-21.43621094 13.79214844 -21.43492187 14.64679688 -21.43359375 15.52734375 C-20.92940214 18.40259862 -19.90193919 19.82563451 -18 22 C-13.80396777 21.78192101 -13.80396777 21.78192101 -10.625 19.375 C-9.56440393 15.34473492 -9.5268248 11.63460523 -10.6875 7.625 C-11.94356746 5.79676808 -11.94356746 5.79676808 -14.375 5.0625 C-17.0247869 4.77771387 -17.0247869 4.77771387 -19.13671875 6.1875 Z " fill="#000000" transform="translate(581,154)"/>
<path d="M0 0 C2.76044006 1.67281485 4.80495323 3.32912813 6.3125 6.25 C6.3125 7.24 6.3125 8.23 6.3125 9.25 C-8.46882118 9.6190205 -8.46882118 9.6190205 -14.6875 7.25 C-14.6875 7.91 -14.6875 8.57 -14.6875 9.25 C-13.16769531 9.50523437 -13.16769531 9.50523437 -11.6171875 9.765625 C-10.26549199 10.00968113 -8.91393662 10.25451432 -7.5625 10.5 C-6.89734375 10.60957031 -6.2321875 10.71914063 -5.546875 10.83203125 C-0.81997484 11.71253226 2.45717139 13.2266724 6.3125 16.25 C8.05258654 19.73017308 7.89714868 23.45306815 7.3125 27.25 C4.46492849 31.07388174 1.79575826 32.8240748 -2.6875 34.25 C-5.34397597 34.49073439 -7.84622922 34.63120402 -10.5 34.625 C-11.21051514 34.62338867 -11.92103027 34.62177734 -12.65307617 34.62011719 C-19.39443793 34.46235215 -23.84618865 33.18296656 -28.625 28.25 C-29.6875 26.25 -29.6875 26.25 -30.6875 22.25 C-25.7375 22.25 -20.7875 22.25 -15.6875 22.25 C-15.6875 22.91 -15.6875 23.57 -15.6875 24.25 C-13.0475 24.58 -10.4075 24.91 -7.6875 25.25 C-7.6875 24.26 -7.6875 23.27 -7.6875 22.25 C-8.986875 22.146875 -10.28625 22.04375 -11.625 21.9375 C-17.72937206 21.2528074 -24.63545515 20.26623624 -28.6875 15.25 C-29.71375947 11.36487487 -29.88754415 8.9301501 -28.75 5.0625 C-22.40190195 -3.59399734 -9.33054292 -4.34620483 0 0 Z " fill="#000000" transform="translate(576.6875,289.75)"/>
<path d="M0 0 C3.66153537 3.47376432 4.30564193 6.11252817 5 11 C2.70890403 11.08075665 0.41700733 11.13907731 -1.875 11.1875 C-3.15117188 11.22230469 -4.42734375 11.25710937 -5.7421875 11.29296875 C-7.35480469 11.14794922 -7.35480469 11.14794922 -9 11 C-9.66 10.01 -10.32 9.02 -11 8 C-13.5 7.5 -13.5 7.5 -16 8 C-18.01696222 11.02544334 -18.25811096 11.61067382 -18.1875 15 C-18.18105469 15.680625 -18.17460938 16.36125 -18.16796875 17.0625 C-18.05697746 19.21758209 -18.05697746 19.21758209 -17 22 C-15.02 22.33 -13.04 22.66 -11 23 C-10.34 22.01 -9.68 21.02 -9 20 C-6.37302936 19.77862607 -3.99106036 19.71837975 -1.375 19.8125 C-0.66859375 19.82603516 0.0378125 19.83957031 0.765625 19.85351562 C2.51074128 19.8888896 4.25546608 19.94269779 6 20 C3.81257298 25.98664237 1.69951316 29.20198486 -4.234375 32.0859375 C-10.46227044 34.14430972 -18.86213847 34.18815916 -25.0625 31.875 C-30.41394043 28.45918696 -32.94409387 25.26024877 -34.5 19.1875 C-35.34134379 13.86700213 -34.50972826 9.74686432 -32 5 C-24.18810686 -4.98186346 -10.75872796 -5.57148412 0 0 Z " fill="#000000" transform="translate(725,83)"/>
<path d="M0 0 C1.39456452 0.00667256 2.78911118 0.01863093 4.18359375 0.03515625 C4.89451172 0.03966797 5.60542969 0.04417969 6.33789062 0.04882812 C8.09899388 0.06064761 9.86005411 0.07858362 11.62109375 0.09765625 C11.62109375 3.39765625 11.62109375 6.69765625 11.62109375 10.09765625 C13.93109375 10.09765625 16.24109375 10.09765625 18.62109375 10.09765625 C18.62109375 13.39765625 18.62109375 16.69765625 18.62109375 20.09765625 C16.31109375 20.09765625 14.00109375 20.09765625 11.62109375 20.09765625 C12.11609375 27.02765625 12.11609375 27.02765625 12.62109375 34.09765625 C14.27109375 34.42765625 15.92109375 34.75765625 17.62109375 35.09765625 C17.64798591 36.57672517 17.66743996 38.05593108 17.68359375 39.53515625 C17.69519531 40.35886719 17.70679688 41.18257813 17.71875 42.03125 C17.62109375 44.09765625 17.62109375 44.09765625 16.62109375 45.09765625 C14.37474821 45.25054888 12.12246201 45.31963092 9.87109375 45.34765625 C8.63875 45.3734375 7.40640625 45.39921875 6.13671875 45.42578125 C2.40942049 45.07790008 0.57058301 44.34800731 -2.37890625 42.09765625 C-3.57920533 39.69705808 -3.49350368 38.20404976 -3.4765625 35.52734375 C-3.47333984 34.63144531 -3.47011719 33.73554688 -3.46679688 32.8125 C-3.45841797 31.87535156 -3.45003906 30.93820312 -3.44140625 29.97265625 C-3.43689453 29.02777344 -3.43238281 28.08289063 -3.42773438 27.109375 C-3.41592982 24.77207238 -3.39946384 22.43489564 -3.37890625 20.09765625 C-5.35890625 20.09765625 -7.33890625 20.09765625 -9.37890625 20.09765625 C-9.37890625 16.79765625 -9.37890625 13.49765625 -9.37890625 10.09765625 C-7.72890625 10.09765625 -6.07890625 10.09765625 -4.37890625 10.09765625 C-4.39050781 9.45957031 -4.40210938 8.82148438 -4.4140625 8.1640625 C-4.42308594 7.33777344 -4.43210937 6.51148438 -4.44140625 5.66015625 C-4.45300781 4.83644531 -4.46460938 4.01273437 -4.4765625 3.1640625 C-4.3105505 -0.34875149 -3.62433237 0.10474949 0 0 Z " fill="#000000" transform="translate(595.37890625,278.90234375)"/>
<path d="M0 0 C4.95 0 9.9 0 15 0 C15 3.3 15 6.6 15 10 C17.31 10 19.62 10 22 10 C22 13.3 22 16.6 22 20 C19.69 20 17.38 20 15 20 C15 24.62 15 29.24 15 34 C16.98 34.33 18.96 34.66 21 35 C21.02689216 36.47906892 21.04634621 37.95827483 21.0625 39.4375 C21.07410156 40.26121094 21.08570313 41.08492188 21.09765625 41.93359375 C21 44 21 44 20 45 C17.75365446 45.15289263 15.50136826 45.22197467 13.25 45.25 C12.01765625 45.27578125 10.7853125 45.3015625 9.515625 45.328125 C5.78832674 44.98024383 3.94948926 44.25035106 1 42 C-0.20029908 39.59940183 -0.11459743 38.10639351 -0.09765625 35.4296875 C-0.09443359 34.53378906 -0.09121094 33.63789063 -0.08789062 32.71484375 C-0.07951172 31.77769531 -0.07113281 30.84054687 -0.0625 29.875 C-0.05798828 28.93011719 -0.05347656 27.98523438 -0.04882812 27.01171875 C-0.03702357 24.67441613 -0.02055759 22.33723939 0 20 C-1.98 20 -3.96 20 -6 20 C-6 16.7 -6 13.4 -6 10 C-4.02 10 -2.04 10 0 10 C0 6.7 0 3.4 0 0 Z " fill="#000000" transform="translate(665,279)"/>
<path d="M0 0 C4.95 0 9.9 0 15 0 C15 16.17 15 32.34 15 49 C10.05 49 5.1 49 0 49 C0 32.83 0 16.66 0 0 Z " fill="#000000" transform="translate(641,205)"/>
<path d="M0 0 C0 3.96 0 7.92 0 12 C-2.24609375 12.61848958 -4.4921875 13.23697917 -6.73828125 13.85546875 C-9.8312662 15.42065803 -10.62090752 16.8280873 -12 20 C-12.36433415 22.68383555 -12.59690918 25.12849054 -12.6875 27.8125 C-12.8421875 31.3703125 -12.8421875 31.3703125 -13 35 C-17.95 35 -22.9 35 -28 35 C-28 23.45 -28 11.9 -28 0 C-23.05 0 -18.1 0 -13 0 C-12.67 0.99 -12.34 1.98 -12 3 C-10.948125 2.319375 -9.89625 1.63875 -8.8125 0.9375 C-5.16292131 -1.42399209 -4.84031638 -0.96806328 0 0 Z " fill="#000000" transform="translate(620,150)"/>
</svg>
